<mxfile host="app.diagrams.net" modified="2022-06-08T06:32:53.523Z" agent="5.0 (Windows NT 10.0; Win64; x64) AppleWebKit/537.36 (KHTML, like Gecko) Chrome/101.0.4951.67 Safari/537.36" etag="hk033XS0YlJtTfVlQpBU" version="19.0.2" type="github">
  <diagram id="tcx6TUzTH8CAHvtFh7Jj" name="Page-1">
    <mxGraphModel dx="1038" dy="521" grid="1" gridSize="10" guides="1" tooltips="1" connect="1" arrows="1" fold="1" page="1" pageScale="1" pageWidth="850" pageHeight="1100" math="0" shadow="0">
      <root>
        <mxCell id="0" />
        <mxCell id="1" parent="0" />
        <mxCell id="wr-xuGoU8k7OEJOhI3mv-59" value="" style="edgeStyle=none;rounded=0;orthogonalLoop=1;jettySize=auto;html=1;" parent="1" source="wr-xuGoU8k7OEJOhI3mv-11" target="wr-xuGoU8k7OEJOhI3mv-58" edge="1">
          <mxGeometry relative="1" as="geometry" />
        </mxCell>
        <mxCell id="wr-xuGoU8k7OEJOhI3mv-11" value="Request" style="rounded=0;whiteSpace=wrap;html=1;" parent="1" vertex="1">
          <mxGeometry x="360" y="90" width="120" height="60" as="geometry" />
        </mxCell>
        <mxCell id="wr-xuGoU8k7OEJOhI3mv-64" style="edgeStyle=orthogonalEdgeStyle;rounded=0;orthogonalLoop=1;jettySize=auto;html=1;exitX=1;exitY=0.5;exitDx=0;exitDy=0;entryX=0.5;entryY=0;entryDx=0;entryDy=0;" parent="1" source="wr-xuGoU8k7OEJOhI3mv-58" target="wr-xuGoU8k7OEJOhI3mv-61" edge="1">
          <mxGeometry relative="1" as="geometry" />
        </mxCell>
        <mxCell id="wr-xuGoU8k7OEJOhI3mv-65" value="Main" style="edgeLabel;html=1;align=center;verticalAlign=middle;resizable=0;points=[];" parent="wr-xuGoU8k7OEJOhI3mv-64" vertex="1" connectable="0">
          <mxGeometry x="-0.144" y="-1" relative="1" as="geometry">
            <mxPoint x="-23" y="-1" as="offset" />
          </mxGeometry>
        </mxCell>
        <mxCell id="wr-xuGoU8k7OEJOhI3mv-58" value="Request Main&lt;br&gt;or Market" style="rhombus;whiteSpace=wrap;html=1;" parent="1" vertex="1">
          <mxGeometry x="360" y="200" width="120" height="80" as="geometry" />
        </mxCell>
        <mxCell id="wr-xuGoU8k7OEJOhI3mv-72" style="edgeStyle=orthogonalEdgeStyle;rounded=0;orthogonalLoop=1;jettySize=auto;html=1;entryX=0.5;entryY=0;entryDx=0;entryDy=0;" parent="1" source="wr-xuGoU8k7OEJOhI3mv-60" target="wr-xuGoU8k7OEJOhI3mv-71" edge="1">
          <mxGeometry relative="1" as="geometry">
            <mxPoint x="420" y="440" as="targetPoint" />
            <Array as="points">
              <mxPoint x="420" y="440" />
            </Array>
          </mxGeometry>
        </mxCell>
        <mxCell id="wr-xuGoU8k7OEJOhI3mv-74" value="No" style="edgeLabel;html=1;align=center;verticalAlign=middle;resizable=0;points=[];" parent="wr-xuGoU8k7OEJOhI3mv-72" vertex="1" connectable="0">
          <mxGeometry x="-0.6867" y="-2" relative="1" as="geometry">
            <mxPoint y="-2" as="offset" />
          </mxGeometry>
        </mxCell>
        <mxCell id="wr-xuGoU8k7OEJOhI3mv-79" value="" style="edgeStyle=orthogonalEdgeStyle;rounded=0;orthogonalLoop=1;jettySize=auto;html=1;entryX=0.5;entryY=0;entryDx=0;entryDy=0;" parent="1" source="wr-xuGoU8k7OEJOhI3mv-60" target="wr-xuGoU8k7OEJOhI3mv-76" edge="1">
          <mxGeometry relative="1" as="geometry">
            <mxPoint x="300" y="560" as="targetPoint" />
            <Array as="points">
              <mxPoint x="300" y="680" />
              <mxPoint x="420" y="680" />
            </Array>
          </mxGeometry>
        </mxCell>
        <mxCell id="dQ4fk0ZhwbnkGSHbgxjx-1" value="Yes" style="edgeLabel;html=1;align=center;verticalAlign=middle;resizable=0;points=[];" vertex="1" connectable="0" parent="wr-xuGoU8k7OEJOhI3mv-79">
          <mxGeometry x="-0.7989" relative="1" as="geometry">
            <mxPoint as="offset" />
          </mxGeometry>
        </mxCell>
        <mxCell id="wr-xuGoU8k7OEJOhI3mv-60" value="Is exist on S3" style="rhombus;whiteSpace=wrap;html=1;" parent="1" vertex="1">
          <mxGeometry x="240" y="400" width="120" height="80" as="geometry" />
        </mxCell>
        <mxCell id="wr-xuGoU8k7OEJOhI3mv-68" value="Yes" style="edgeStyle=orthogonalEdgeStyle;rounded=0;orthogonalLoop=1;jettySize=auto;html=1;entryX=0.5;entryY=0;entryDx=0;entryDy=0;" parent="1" source="wr-xuGoU8k7OEJOhI3mv-61" target="wr-xuGoU8k7OEJOhI3mv-76" edge="1">
          <mxGeometry x="-0.8919" relative="1" as="geometry">
            <mxPoint x="680" y="360" as="targetPoint" />
            <Array as="points">
              <mxPoint x="680" y="320" />
              <mxPoint x="680" y="680" />
              <mxPoint x="420" y="680" />
            </Array>
            <mxPoint as="offset" />
          </mxGeometry>
        </mxCell>
        <mxCell id="wr-xuGoU8k7OEJOhI3mv-70" value="No" style="edgeStyle=orthogonalEdgeStyle;rounded=0;orthogonalLoop=1;jettySize=auto;html=1;" parent="1" source="wr-xuGoU8k7OEJOhI3mv-61" target="wr-xuGoU8k7OEJOhI3mv-69" edge="1">
          <mxGeometry relative="1" as="geometry" />
        </mxCell>
        <mxCell id="wr-xuGoU8k7OEJOhI3mv-61" value="Is exist on S3" style="rhombus;whiteSpace=wrap;html=1;" parent="1" vertex="1">
          <mxGeometry x="480" y="280" width="120" height="80" as="geometry" />
        </mxCell>
        <mxCell id="wr-xuGoU8k7OEJOhI3mv-63" style="edgeStyle=orthogonalEdgeStyle;rounded=0;orthogonalLoop=1;jettySize=auto;html=1;entryX=0.5;entryY=0;entryDx=0;entryDy=0;" parent="1" source="wr-xuGoU8k7OEJOhI3mv-58" target="wr-xuGoU8k7OEJOhI3mv-60" edge="1">
          <mxGeometry relative="1" as="geometry">
            <mxPoint x="300" y="240" as="targetPoint" />
            <Array as="points">
              <mxPoint x="300" y="240" />
            </Array>
          </mxGeometry>
        </mxCell>
        <mxCell id="wr-xuGoU8k7OEJOhI3mv-66" value="Market" style="edgeLabel;html=1;align=center;verticalAlign=middle;resizable=0;points=[];" parent="wr-xuGoU8k7OEJOhI3mv-63" vertex="1" connectable="0">
          <mxGeometry x="0.024" y="-4" relative="1" as="geometry">
            <mxPoint x="34" y="-53" as="offset" />
          </mxGeometry>
        </mxCell>
        <mxCell id="wr-xuGoU8k7OEJOhI3mv-73" style="edgeStyle=orthogonalEdgeStyle;rounded=0;orthogonalLoop=1;jettySize=auto;html=1;entryX=0.5;entryY=0;entryDx=0;entryDy=0;" parent="1" source="wr-xuGoU8k7OEJOhI3mv-69" target="wr-xuGoU8k7OEJOhI3mv-71" edge="1">
          <mxGeometry relative="1" as="geometry">
            <Array as="points">
              <mxPoint x="420" y="440" />
            </Array>
          </mxGeometry>
        </mxCell>
        <mxCell id="wr-xuGoU8k7OEJOhI3mv-75" value="No&lt;br&gt;" style="edgeLabel;html=1;align=center;verticalAlign=middle;resizable=0;points=[];" parent="wr-xuGoU8k7OEJOhI3mv-73" vertex="1" connectable="0">
          <mxGeometry x="-0.68" y="1" relative="1" as="geometry">
            <mxPoint as="offset" />
          </mxGeometry>
        </mxCell>
        <mxCell id="wr-xuGoU8k7OEJOhI3mv-81" value="Yes" style="edgeStyle=orthogonalEdgeStyle;rounded=0;orthogonalLoop=1;jettySize=auto;html=1;" parent="1" source="wr-xuGoU8k7OEJOhI3mv-69" target="wr-xuGoU8k7OEJOhI3mv-80" edge="1">
          <mxGeometry x="-0.3333" relative="1" as="geometry">
            <mxPoint as="offset" />
          </mxGeometry>
        </mxCell>
        <mxCell id="wr-xuGoU8k7OEJOhI3mv-69" value="Is exist on EFS" style="rhombus;whiteSpace=wrap;html=1;" parent="1" vertex="1">
          <mxGeometry x="480" y="400" width="120" height="80" as="geometry" />
        </mxCell>
        <mxCell id="wr-xuGoU8k7OEJOhI3mv-71" value="return Blank image" style="rounded=0;whiteSpace=wrap;html=1;" parent="1" vertex="1">
          <mxGeometry x="360" y="490" width="120" height="60" as="geometry" />
        </mxCell>
        <mxCell id="wr-xuGoU8k7OEJOhI3mv-86" value="Yes" style="edgeStyle=orthogonalEdgeStyle;rounded=0;orthogonalLoop=1;jettySize=auto;html=1;" parent="1" source="wr-xuGoU8k7OEJOhI3mv-76" target="wr-xuGoU8k7OEJOhI3mv-84" edge="1">
          <mxGeometry x="-0.2" relative="1" as="geometry">
            <mxPoint as="offset" />
          </mxGeometry>
        </mxCell>
        <mxCell id="wr-xuGoU8k7OEJOhI3mv-87" style="edgeStyle=orthogonalEdgeStyle;rounded=0;orthogonalLoop=1;jettySize=auto;html=1;" parent="1" source="wr-xuGoU8k7OEJOhI3mv-76" target="wr-xuGoU8k7OEJOhI3mv-85" edge="1">
          <mxGeometry relative="1" as="geometry" />
        </mxCell>
        <mxCell id="dQ4fk0ZhwbnkGSHbgxjx-2" value="No" style="edgeLabel;html=1;align=center;verticalAlign=middle;resizable=0;points=[];" vertex="1" connectable="0" parent="wr-xuGoU8k7OEJOhI3mv-87">
          <mxGeometry x="-0.6626" y="4" relative="1" as="geometry">
            <mxPoint y="4" as="offset" />
          </mxGeometry>
        </mxCell>
        <mxCell id="wr-xuGoU8k7OEJOhI3mv-76" value="Is args empty" style="rhombus;whiteSpace=wrap;html=1;" parent="1" vertex="1">
          <mxGeometry x="360" y="720" width="120" height="80" as="geometry" />
        </mxCell>
        <mxCell id="wr-xuGoU8k7OEJOhI3mv-83" style="edgeStyle=orthogonalEdgeStyle;rounded=0;orthogonalLoop=1;jettySize=auto;html=1;entryX=0.5;entryY=0;entryDx=0;entryDy=0;" parent="1" source="wr-xuGoU8k7OEJOhI3mv-80" target="wr-xuGoU8k7OEJOhI3mv-76" edge="1">
          <mxGeometry relative="1" as="geometry">
            <Array as="points">
              <mxPoint x="540" y="680" />
              <mxPoint x="420" y="680" />
            </Array>
          </mxGeometry>
        </mxCell>
        <mxCell id="wr-xuGoU8k7OEJOhI3mv-80" value="Upload&amp;nbsp; to S3" style="rounded=1;whiteSpace=wrap;html=1;" parent="1" vertex="1">
          <mxGeometry x="480" y="570" width="120" height="60" as="geometry" />
        </mxCell>
        <mxCell id="wr-xuGoU8k7OEJOhI3mv-84" value="Redirect to raw imagage" style="rounded=0;whiteSpace=wrap;html=1;" parent="1" vertex="1">
          <mxGeometry x="360" y="850" width="120" height="60" as="geometry" />
        </mxCell>
        <mxCell id="wr-xuGoU8k7OEJOhI3mv-85" value="Return processed image" style="rounded=0;whiteSpace=wrap;html=1;" parent="1" vertex="1">
          <mxGeometry x="560" y="850" width="120" height="60" as="geometry" />
        </mxCell>
      </root>
    </mxGraphModel>
  </diagram>
</mxfile>
